<?xml version="1.0" encoding="utf-8"?>
<!-- Generator: Adobe Illustrator 26.0.1, SVG Export Plug-In . SVG Version: 6.00 Build 0)  -->
<svg version="1.1" id="Layer_2" xmlns="http://www.w3.org/2000/svg" xmlns:xlink="http://www.w3.org/1999/xlink" x="0px" y="0px"
	 viewBox="0 0 426.16 85.04" style="enable-background:new 0 0 426.16 85.04;" xml:space="preserve">
<path d="M47.9,19.81c-6.13,0-11.12,4.99-11.12,11.12v21.04c0,3.92-3.19,7.12-7.12,7.12c-3.92,0-7.12-3.19-7.12-7.12h-4
	c0,6.13,4.99,11.12,11.12,11.12c6.13,0,11.12-4.99,11.12-11.12V30.93c0-3.92,3.19-7.12,7.12-7.12c3.92,0,7.12,3.19,7.12,7.12v16.05
	h-7.15v4h7.15v11.43h4V30.93C59.02,24.8,54.03,19.81,47.9,19.81z"/>
<g>
	<path d="M107.7,47.38c0,1.98-0.46,3.38-1.38,4.23c-0.92,0.84-2.32,1.26-4.21,1.26c-0.99,0-1.8-0.13-2.43-0.4
		c-0.63-0.27-1.14-0.65-1.51-1.14c-0.37-0.49-0.63-1.07-0.77-1.73c-0.14-0.66-0.21-1.35-0.21-2.08V46.7h3.43v0.57
		c0,0.99,0.11,1.72,0.33,2.2c0.22,0.48,0.66,0.72,1.34,0.72c0.68,0,1.12-0.24,1.34-0.72c0.22-0.48,0.32-1.21,0.32-2.2V34.01h3.74
		V47.38z"/>
	<path d="M118.39,34.01l4.91,18.56h-3.9l-0.86-3.93h-4.94l-0.86,3.93h-3.9l4.91-18.56H118.39z M117.89,45.58l-1.79-8.35h-0.05
		l-1.79,8.35H117.89z"/>
	<path d="M133.44,46.73h0.05V34.01h3.43v18.56h-4.26l-4.58-13h-0.05v13h-3.43V34.01h4.32L133.44,46.73z"/>
	<path d="M148.78,47.33c0,0.43,0.03,0.83,0.1,1.18c0.07,0.36,0.2,0.66,0.39,0.9c0.19,0.24,0.45,0.43,0.77,0.57
		c0.32,0.14,0.72,0.21,1.21,0.21c0.57,0,1.09-0.19,1.55-0.56c0.46-0.37,0.69-0.95,0.69-1.73c0-0.42-0.06-0.78-0.17-1.08
		c-0.11-0.3-0.3-0.58-0.56-0.82c-0.26-0.24-0.6-0.46-1.03-0.66c-0.42-0.2-0.95-0.4-1.57-0.61c-0.83-0.28-1.55-0.58-2.16-0.91
		c-0.61-0.33-1.11-0.71-1.52-1.16c-0.41-0.44-0.71-0.95-0.9-1.53c-0.19-0.58-0.29-1.25-0.29-2.01c0-1.84,0.51-3.21,1.53-4.11
		c1.02-0.9,2.43-1.35,4.21-1.35c0.83,0,1.6,0.09,2.3,0.27c0.7,0.18,1.31,0.48,1.82,0.88c0.51,0.41,0.91,0.93,1.2,1.56
		s0.43,1.39,0.43,2.28v0.52h-3.59c0-0.88-0.16-1.56-0.47-2.04s-0.83-0.71-1.56-0.71c-0.42,0-0.76,0.06-1.04,0.18
		c-0.28,0.12-0.5,0.28-0.66,0.48c-0.17,0.2-0.28,0.43-0.34,0.69c-0.06,0.26-0.09,0.53-0.09,0.81c0,0.57,0.12,1.05,0.36,1.44
		c0.24,0.39,0.76,0.75,1.56,1.08l2.89,1.25c0.71,0.31,1.29,0.64,1.74,0.98c0.45,0.34,0.81,0.7,1.08,1.09
		c0.27,0.39,0.46,0.82,0.56,1.29c0.1,0.47,0.16,0.99,0.16,1.56c0,1.96-0.57,3.38-1.7,4.28c-1.14,0.89-2.72,1.34-4.75,1.34
		c-2.12,0-3.63-0.46-4.54-1.38s-1.37-2.24-1.37-3.95v-0.75h3.74V47.33z"/>
	<path d="M170.12,37.08h-4.06v15.5h-3.74v-15.5h-4.06v-3.07h11.86V37.08z"/>
	<path d="M178.65,34.01c1.56,0,2.77,0.39,3.64,1.18c0.87,0.79,1.3,1.99,1.3,3.6c0,1.25-0.25,2.27-0.75,3.06
		c-0.5,0.79-1.28,1.3-2.34,1.52v0.05c0.94,0.14,1.62,0.44,2.05,0.91c0.43,0.47,0.7,1.22,0.81,2.26c0.03,0.35,0.06,0.72,0.08,1.13
		c0.02,0.41,0.03,0.86,0.05,1.36c0.04,0.99,0.09,1.74,0.16,2.26c0.1,0.52,0.33,0.88,0.68,1.07v0.16h-4.06
		c-0.19-0.26-0.31-0.56-0.36-0.9c-0.05-0.34-0.09-0.69-0.1-1.05l-0.1-3.56c-0.04-0.73-0.22-1.3-0.55-1.72s-0.88-0.62-1.66-0.62h-2
		v7.85h-3.74V34.01H178.65z M177.04,42.13c0.9,0,1.59-0.21,2.08-0.64s0.73-1.14,0.73-2.15c0-1.72-0.87-2.57-2.6-2.57h-1.77v5.36
		H177.04z"/>
	<path d="M190.22,46.96c0,0.47,0.03,0.9,0.09,1.29c0.06,0.39,0.17,0.73,0.34,1.01c0.16,0.29,0.39,0.51,0.68,0.68
		s0.65,0.25,1.08,0.25c0.45,0,0.81-0.08,1.09-0.25s0.5-0.39,0.66-0.68c0.16-0.29,0.28-0.62,0.34-1.01s0.09-0.82,0.09-1.29V34.01
		h3.74v12.95c0,1.18-0.17,2.15-0.49,2.92c-0.33,0.77-0.77,1.38-1.33,1.83c-0.55,0.45-1.19,0.75-1.9,0.91
		c-0.71,0.16-1.45,0.23-2.21,0.23s-1.5-0.07-2.21-0.21c-0.71-0.14-1.34-0.42-1.9-0.84s-1-1.03-1.33-1.81
		c-0.33-0.78-0.49-1.79-0.49-3.04V34.01h3.74V46.96z"/>
	<path d="M206.14,41.19h0.05l2.6-7.18h4.06l-4.81,11.26v7.31h-3.74v-7.31l-4.81-11.26h4.21L206.14,41.19z"/>
	<path d="M219.63,47.74h0.08l2.76-13.73h3.87l-4.26,18.56h-4.81L213,34.01h4L219.63,47.74z"/>
	<path d="M238.09,37.08h-6.63v4.37h6.24v3.07h-6.24v4.99h6.89v3.07h-10.63V34.01h10.37V37.08z"/>
	<path d="M249.06,46.73h0.05V34.01h3.43v18.56h-4.26l-4.58-13h-0.05v13h-3.43V34.01h4.32L249.06,46.73z"/>
	<path d="M268.66,34.01l4.91,18.56h-3.9l-0.86-3.93h-4.94l-0.86,3.93h-3.9l4.91-18.56H268.66z M268.17,45.58l-1.79-8.35h-0.05
		l-1.79,8.35H268.17z"/>
	<path d="M281.79,34.01c1.56,0,2.77,0.39,3.64,1.18c0.87,0.79,1.3,1.99,1.3,3.6c0,1.25-0.25,2.27-0.75,3.06
		c-0.5,0.79-1.28,1.3-2.34,1.52v0.05c0.94,0.14,1.62,0.44,2.05,0.91c0.43,0.47,0.7,1.22,0.81,2.26c0.03,0.35,0.06,0.72,0.08,1.13
		c0.02,0.41,0.03,0.86,0.05,1.36c0.04,0.99,0.09,1.74,0.16,2.26c0.1,0.52,0.33,0.88,0.68,1.07v0.16h-4.06
		c-0.19-0.26-0.31-0.56-0.36-0.9c-0.05-0.34-0.09-0.69-0.1-1.05l-0.1-3.56c-0.04-0.73-0.22-1.3-0.55-1.72s-0.88-0.62-1.66-0.62h-2
		v7.85h-3.74V34.01H281.79z M280.18,42.13c0.9,0,1.59-0.21,2.08-0.64s0.73-1.14,0.73-2.15c0-1.72-0.87-2.57-2.6-2.57h-1.77v5.36
		H280.18z"/>
	<path d="M296.78,37.33c-0.32-0.62-0.91-0.92-1.75-0.92c-0.47,0-0.85,0.13-1.16,0.38c-0.3,0.25-0.54,0.66-0.71,1.22
		c-0.17,0.56-0.29,1.3-0.36,2.21s-0.1,2.02-0.1,3.34c0,1.4,0.05,2.54,0.14,3.41c0.09,0.87,0.24,1.54,0.44,2.02
		c0.2,0.48,0.45,0.8,0.75,0.96c0.3,0.17,0.65,0.25,1.05,0.25c0.33,0,0.64-0.06,0.92-0.17c0.29-0.11,0.53-0.34,0.74-0.68
		s0.37-0.81,0.49-1.43s0.18-1.43,0.18-2.43h3.74c0,1-0.08,1.96-0.23,2.86c-0.16,0.9-0.45,1.69-0.87,2.37
		c-0.43,0.68-1.02,1.21-1.79,1.59c-0.77,0.38-1.77,0.57-3,0.57c-1.4,0-2.52-0.23-3.35-0.68c-0.83-0.45-1.47-1.1-1.91-1.95
		c-0.44-0.85-0.73-1.86-0.86-3.04c-0.13-1.18-0.2-2.48-0.2-3.9c0-1.4,0.06-2.7,0.2-3.89c0.13-1.19,0.42-2.21,0.86-3.05
		c0.44-0.85,1.08-1.51,1.91-1.99s1.95-0.71,3.35-0.71c1.33,0,2.39,0.22,3.16,0.65c0.77,0.43,1.35,0.98,1.73,1.65
		c0.38,0.67,0.62,1.39,0.71,2.16c0.09,0.77,0.14,1.5,0.14,2.17h-3.74C297.26,38.93,297.1,37.94,296.78,37.33z"/>
	<path d="M307.04,34.01v7.1h4.37v-7.1h3.74v18.56h-3.74v-8.24h-4.37v8.24h-3.74V34.01H307.04z"/>
	<path d="M317.93,34.01h3.74v18.56h-3.74V34.01z"/>
	<path d="M335.33,37.08h-4.06v15.5h-3.74v-15.5h-4.06v-3.07h11.86V37.08z"/>
	<path d="M347.31,37.08h-6.63v4.37h6.24v3.07h-6.24v4.99h6.89v3.07h-10.63V34.01h10.37V37.08z"/>
	<path d="M356.89,37.33c-0.32-0.62-0.91-0.92-1.75-0.92c-0.47,0-0.85,0.13-1.16,0.38c-0.3,0.25-0.54,0.66-0.71,1.22
		c-0.17,0.56-0.29,1.3-0.36,2.21s-0.1,2.02-0.1,3.34c0,1.4,0.05,2.54,0.14,3.41c0.09,0.87,0.24,1.54,0.44,2.02
		c0.2,0.48,0.45,0.8,0.75,0.96c0.3,0.17,0.65,0.25,1.05,0.25c0.33,0,0.64-0.06,0.92-0.17c0.29-0.11,0.53-0.34,0.74-0.68
		s0.37-0.81,0.49-1.43s0.18-1.43,0.18-2.43h3.74c0,1-0.08,1.96-0.23,2.86c-0.16,0.9-0.45,1.69-0.87,2.37
		c-0.43,0.68-1.02,1.21-1.79,1.59c-0.77,0.38-1.77,0.57-3,0.57c-1.4,0-2.52-0.23-3.35-0.68c-0.83-0.45-1.47-1.1-1.91-1.95
		c-0.44-0.85-0.73-1.86-0.86-3.04c-0.13-1.18-0.2-2.48-0.2-3.9c0-1.4,0.06-2.7,0.2-3.89c0.13-1.19,0.42-2.21,0.86-3.05
		c0.44-0.85,1.08-1.51,1.91-1.99s1.95-0.71,3.35-0.71c1.33,0,2.39,0.22,3.16,0.65c0.77,0.43,1.35,0.98,1.73,1.65
		c0.38,0.67,0.62,1.39,0.71,2.16c0.09,0.77,0.14,1.5,0.14,2.17h-3.74C357.38,38.93,357.21,37.94,356.89,37.33z"/>
	<path d="M374.27,37.08h-4.06v15.5h-3.74v-15.5h-4.06v-3.07h11.86V37.08z"/>
	<path d="M386.26,37.08h-6.63v4.37h6.24v3.07h-6.24v4.99h6.89v3.07h-10.63V34.01h10.37V37.08z"/>
	<path d="M397.23,46.73h0.05V34.01h3.43v18.56h-4.26l-4.58-13h-0.05v13h-3.43V34.01h4.32L397.23,46.73z"/>
</g>
</svg>
